testWalking_kinetics.mot
nRows=17
nColumns=19

name testWalking_kinetics.mot
datacolumns 19
datarows 17
range 1.1379629374 1.1527777910
endheader
time	ground_force_vx	ground_force_vy	ground_force_vz	ground_force_px	ground_force_py	ground_force_pz	ground_force_vx	ground_force_vy	ground_force_vz	ground_force_px	ground_force_py	ground_force_pz	ground_torque_x	ground_torque_y	ground_torque_z	ground_torque_x	ground_torque_y	ground_torque_z
        1.1379629374	        0.0000000000	       -0.0000000000	       -0.0000000000	        0.0762562081	        0.0000000000	       -0.1868414730	      -87.5657119751	      746.6810913086	       36.9944686890	        1.7669970989	        0.0000000000	       -0.0802144706	        0.0000000000	       -0.0000000000	       -0.0000000000	        0.0000000000	       -1.4399081469	       -0.0000000000	
        1.1388888359	        0.0000000000	       -0.0000000000	       -0.0000000000	        0.0762562081	        0.0000000000	       -0.1868414730	      -86.7790603638	      744.1596679688	       38.5163230896	        1.7673848867	        0.0000000000	       -0.0803502202	        0.0000000000	       -0.0000000000	       -0.0000000000	        0.0000000000	       -1.3480083942	       -0.0000000000	
        1.1398148537	        0.0000000000	       -0.0000000000	       -0.0000000000	        0.0762562081	        0.0000000000	       -0.1868414730	      -85.5878448486	      741.8991088867	       38.2925224304	        1.7677892447	        0.0000000000	       -0.0805641264	        0.0000000000	       -0.0000000000	       -0.0000000000	        0.0000000000	       -1.1126819849	       -0.0000000000	
        1.1407407522	        0.0000000000	       -0.0000000000	       -0.0000000000	        0.0762562081	        0.0000000000	       -0.1868414730	      -84.3067245483	      740.3341064453	       37.3301734924	        1.7682601213	        0.0000000000	       -0.0805054307	        0.0000000000	       -0.0000000000	       -0.0000000000	       -0.0000000000	       -1.2599440813	       -0.0000000000	
        1.1416666508	        0.0000000000	       -0.0000000000	       -0.0000000000	        0.0762562081	        0.0000000000	       -0.1868414730	      -83.7448272705	      736.3346557617	       38.0239601135	        1.7684589624	        0.0000000000	       -0.0809126273	        0.0000000000	       -0.0000000000	       -0.0000000000	        0.0000000000	       -1.4709752798	       -0.0000000000	
        1.1425925493	        0.0000000000	       -0.0000000000	       -0.0000000000	        0.0762562081	        0.0000000000	       -0.1868414730	      -82.8682708740	      735.0305175781	       39.1877288818	        1.7689810991	        0.0000000000	       -0.0810304657	        0.0000000000	       -0.0000000000	       -0.0000000000	        0.0000000000	       -1.2168940306	       -0.0000000000	
        1.1435185671	        0.0000000000	       -0.0000000000	       -0.0000000000	        0.0762562081	        0.0000000000	       -0.1868414730	      -81.6096267700	      733.5524291992	       38.7625045776	        1.7691971064	        0.0000000000	       -0.0810153633	        0.0000000000	       -0.0000000000	       -0.0000000000	       -0.0000000000	       -1.1524637938	       -0.0000000000	
        1.1444444656	        0.0000000000	       -0.0000000000	       -0.0000000000	        0.0762562081	        0.0000000000	       -0.1868414730	      -80.3509826660	      729.9007568359	       38.1134796143	        1.7697048187	        0.0000000000	       -0.0812532455	        0.0000000000	       -0.0000000000	       -0.0000000000	        0.0000000000	       -1.3682761192	       -0.0000000000	
        1.1453703642	        0.0000000000	       -0.0000000000	       -0.0000000000	        0.0762562081	        0.0000000000	       -0.1868414730	      -80.1936492920	      728.1618652344	       39.2101097107	        1.7700344324	        0.0000000000	       -0.0812931433	        0.0000000000	       -0.0000000000	       -0.0000000000	        0.0000000000	       -1.3623942137	       -0.0000000000	
        1.1462962627	        0.0000000000	       -0.0000000000	       -0.0000000000	        0.0762562081	        0.0000000000	       -0.1868414730	      -79.4294738770	      724.9448852539	       40.0381774902	        1.7704195976	        0.0000000000	       -0.0817148164	        0.0000000000	       -0.0000000000	       -0.0000000000	       -0.0000000000	       -1.1533784866	       -0.0000000000	
        1.1472222805	        0.0000000000	       -0.0000000000	       -0.0000000000	        0.0762562081	        0.0000000000	       -0.1868414730	      -77.9460754395	      721.3801879883	       40.0829353333	        1.7709813118	        0.0000000000	       -0.0820318684	        0.0000000000	       -0.0000000000	       -0.0000000000	       -0.0000000000	       -1.2239943743	       -0.0000000000	
        1.1481481791	        0.0000000000	       -0.0000000000	       -0.0000000000	        0.0762562081	        0.0000000000	       -0.1868414730	      -77.1818923950	      719.8151855469	       39.1653480530	        1.7712242603	        0.0000000000	       -0.0822313949	        0.0000000000	       -0.0000000000	       -0.0000000000	        0.0000000000	       -1.4232861996	       -0.0000000000	
        1.1490740776	        0.0000000000	       -0.0000000000	       -0.0000000000	        0.0762562081	        0.0000000000	       -0.1868414730	      -76.9121856689	      717.2068481445	       40.3067398071	        1.7717334032	        0.0000000000	       -0.0821912661	        0.0000000000	       -0.0000000000	       -0.0000000000	       -0.0000000000	       -1.2440717220	       -0.0000000000	
        1.1499999762	        0.0000000000	       -0.0000000000	       -0.0000000000	        0.0762562081	        0.0000000000	       -0.1868414730	      -76.1704864502	      713.4682006836	       40.9557647705	        1.7719098330	        0.0000000000	       -0.0826886743	        0.0000000000	       -0.0000000000	       -0.0000000000	        0.0000000000	       -1.2173087597	       -0.0000000000	
        1.1509258747	        0.0000000000	       -0.0000000000	       -0.0000000000	        0.0762562081	        0.0000000000	       -0.1868414730	      -75.0466918945	      711.4684448242	       40.5081596375	        1.7724720240	        0.0000000000	       -0.0827215239	        0.0000000000	       -0.0000000000	       -0.0000000000	        0.0000000000	       -1.3870220184	       -0.0000000000	
        1.1518518925	        0.0000000000	       -0.0000000000	       -0.0000000000	        0.0762562081	        0.0000000000	       -0.1868414730	      -74.2375640869	      708.6862182617	       40.1276969910	        1.7728576660	        0.0000000000	       -0.0829048827	        0.0000000000	       -0.0000000000	       -0.0000000000	        0.0000000000	       -1.3892257214	       -0.0000000000	
        1.1527777910	        0.0000000000	       -0.0000000000	       -0.0000000000	        0.0762562081	        0.0000000000	       -0.1868414730	      -73.5183410645	      705.2084350586	       40.9781455994	        1.7733479738	        0.0000000000	       -0.0833037794	        0.0000000000	       -0.0000000000	       -0.0000000000	        0.0000000000	       -1.2177481651	       -0.0000000000	
